<?xml version="1.0" encoding="UTF-8"?> <svg xmlns="http://www.w3.org/2000/svg" width="462" height="145" viewBox="0 0 462 145" fill="none"><path fill-rule="evenodd" clip-rule="evenodd" d="M170 0H149V21H128V42H107V63H128V42H149V63H170V42H149V21H170V0ZM0 102C0 98.134 3.13379 95 7 95H30V100C30 101.657 31.3433 103 33 103H38V142C38 143.657 36.6569 145 35 145H30V128H8V142C8 143.657 6.65685 145 5 145H0V102ZM30 103V120H8V103H30ZM44 102C44 98.134 47.1338 95 51 95H75C78.866 95 82 98.134 82 102V121C82 124.866 78.866 128 75 128H52V142C52 143.657 50.6569 145 49 145H44V136.93C44 132.762 46.5857 129.03 50.4888 127.567L50.7022 127.487C51.4829 127.194 52 126.448 52 125.614V122.386C52 121.552 51.4829 120.806 50.7022 120.513L50.4888 120.433C46.5857 118.97 44 115.238 44 111.07V102ZM52 120V103H74V120H52ZM88 102C88 98.134 91.1338 95 95 95H119C122.866 95 126 98.134 126 102V121C126 124.866 122.866 128 119 128H96V142C96 143.657 94.6569 145 93 145H88V136.93C88 132.762 90.5857 129.03 94.4888 127.567L94.7022 127.487C95.4829 127.194 96 126.448 96 125.614V122.386C96 121.552 95.4829 120.806 94.7022 120.513L94.4888 120.433C90.5857 118.97 88 115.238 88 111.07V102ZM96 120V103H118V120H96ZM190 102C190 98.134 193.134 95 197 95H228V103H198V116H228V124H198V137H228V145H197C193.134 145 190 141.866 190 138V132.062C190 127.456 193.43 123.571 198 123V117C193.43 116.429 190 112.544 190 107.938V102ZM343 95C339.134 95 336 98.134 336 102V107.938C336 112.544 339.43 116.429 344 117V123C339.43 123.571 336 127.456 336 132.062V138C336 141.866 339.134 145 343 145H374V137H344V124H374V116H344V103H374V95H343ZM292 102C292 98.134 295.134 95 299 95H330V103H300V116H330V124H300V145H292V132.062C292 127.456 295.43 123.571 300 123V118.344C300 117.576 299.428 116.929 298.667 116.833C294.858 116.357 292 113.12 292 109.281V102ZM239.614 103H234V138C234 141.866 237.134 145 241 145H272V137H242V103H272V95H250.93C246.762 95 243.03 97.5857 241.567 101.489L241.487 101.702C241.194 102.483 240.448 103 239.614 103ZM153 95C149.134 95 146 98.134 146 102V116H151C152.657 116 154 117.343 154 119V124H175.958V137H146V145H176.958C180.824 145 183.958 141.866 183.958 138V123C183.958 119.134 180.824 116 176.958 116H154V103H184V95H153ZM380 102C380 98.134 383.134 95 387 95H418V103H388V116H410.958C414.824 116 417.958 119.134 417.958 123V138C417.958 141.866 414.824 145 410.958 145H380V137H409.958V124H388V119C388 117.343 386.657 116 385 116H380V102ZM439 103H424V95H430.07C434.238 95 437.97 97.5857 439.433 101.489L439.513 101.702C439.806 102.483 440.552 103 441.386 103H444.614C445.448 103 446.194 102.483 446.487 101.702L446.567 101.489C448.03 97.5857 451.762 95 455.93 95H462V103H447V145H439V103ZM313 0H319L315.952 16H331.952L335 0H341L337.952 16H354L352 22H336.81L333.19 41H349L347 47H332.048L329 63H323L326.048 47H310.048L307 63H301L304.048 47H288L290 41H305.19L308.81 22H293L295 16H309.952L313 0ZM311.19 41H327.19L330.81 22H314.81L311.19 41ZM196 31.5C196 25.701 200.701 21 206.5 21C209.401 21 212.018 22.1692 213.925 24.0754L236.552 46.7028C240.437 50.5875 245.819 53 251.755 53C263.629 53 273.255 43.3741 273.255 31.5C273.255 19.6259 263.629 10 251.755 10C245.819 10 240.437 12.4125 236.552 16.2972L231.238 21.6109L239.017 29.3891L244.33 24.0754C246.236 22.1692 248.854 21 251.755 21C257.554 21 262.255 25.701 262.255 31.5C262.255 37.299 257.554 42 251.755 42C248.854 42 246.236 40.8308 244.33 38.9246L221.703 16.2972C217.818 12.4125 212.436 10 206.5 10C194.626 10 185 19.6259 185 31.5C185 43.3741 194.626 53 206.5 53C212.436 53 217.818 50.5875 221.703 46.7028L227.017 41.3891L219.238 33.6109L213.925 38.9246C212.018 40.8308 209.401 42 206.5 42C200.701 42 196 37.299 196 31.5Z" fill="white"></path></svg> 